# xmcd CD database file
#
# Track frame offsets:
#	150
#	19240
#	43767
#	62846
#
# Disc length: 1163 seconds
#
# Revision: 0
# Processed by: cddbd v1.5.1PL2 Copyright (c) Steve Scherf et al.
# Submitted via: CD2WAV32(JP) R3.22
#
DISCID=31048904
DTITLE=北見熊の助 - ほ・ほほほの北海道
DYEAR=2005
DGENRE=Country
TTITLE0=ほ・ほほほの北海道
TTITLE1=オヤジの独り言
TTITLE2=ほ・ほほほの北海道(カラオケ)
TTITLE3=オヤジの独り言(カラオケ)
EXTD=
EXTT0=
EXTT1=
EXTT2=
EXTT3=
PLAYORDER=
